<svg width="218" height="40" viewBox="0 0 218 40" fill="none" xmlns="http://www.w3.org/2000/svg">
<path d="M0.24823 20.0895C0.24823 8.32479 9.14348 0.433838 20.4778 0.433838C28.9426 0.433838 33.6772 5.02494 36.4032 9.75952L29.5165 13.0594C27.9383 10.0465 24.495 7.46398 20.4778 7.46398C13.5911 7.46398 8.56959 12.7724 8.56959 19.946C8.56959 27.1196 13.5911 32.4281 20.4778 32.4281C24.3515 32.4281 27.7948 29.9891 29.5165 26.8327L36.5466 30.1325C33.8207 34.8671 28.9426 39.4582 20.6213 39.4582C9.14349 39.7452 0.24823 31.7107 0.24823 20.0895Z" fill="white"/>
<path d="M40.2766 35.0103C40.2766 32.4278 42.4286 30.4192 44.8677 30.4192C47.4501 30.4192 49.4587 32.5713 49.4587 35.0103C49.4587 37.4493 47.3067 39.6014 44.8677 39.6014C42.2852 39.7449 40.2766 37.5928 40.2766 35.0103Z" fill="white"/>
<path d="M61.6545 39.0279V1.00781H69.6889V31.9978H85.9012V39.0279H61.6545Z" fill="white"/>
<path d="M91.6389 35.0103C91.6389 32.4278 93.791 30.4192 96.23 30.4192C98.8125 30.4192 100.821 32.5713 100.821 35.0103C100.821 37.4493 98.669 39.6014 96.23 39.6014C93.6475 39.7449 91.6389 37.5928 91.6389 35.0103Z" fill="white"/>
<path d="M111.295 23.8195V0.864014H119.473V23.5326C119.473 28.8411 122.629 32.4279 128.512 32.4279C134.394 32.4279 137.407 28.8411 137.407 23.5326V0.864014H145.728V23.6761C145.728 33.1452 140.133 39.6015 128.512 39.6015C116.891 39.6015 111.295 33.2887 111.295 23.8195Z" fill="white"/>
<path d="M150.32 35.0103C150.32 32.4278 152.473 30.4192 154.912 30.4192C157.494 30.4192 159.503 32.5713 159.503 35.0103C159.503 37.4493 157.351 39.6014 154.912 39.6014C152.473 39.7449 150.32 37.5928 150.32 35.0103Z" fill="white"/>
<path d="M171.841 39.0276V0.864014H191.927C199.244 0.864014 202.831 5.45512 202.831 10.6201C202.831 15.3547 199.818 18.6545 196.231 19.3719C200.248 19.9458 203.548 23.963 203.548 28.6976C203.548 34.4365 199.675 39.0276 192.501 39.0276H171.841ZM194.51 12.0548C194.51 9.61581 192.788 7.89413 190.062 7.89413H179.875V16.2155H190.062C192.788 16.2155 194.51 14.4939 194.51 12.0548ZM195.227 27.6933C195.227 25.2542 193.505 23.2457 190.349 23.2457H179.875V32.1409H190.349C193.362 31.9974 195.227 30.4192 195.227 27.6933Z" fill="white"/>
<path d="M208.57 35.0103C208.57 32.4278 210.722 30.4192 213.161 30.4192C215.743 30.4192 217.752 32.5713 217.752 35.0103C217.752 37.4493 215.6 39.6014 213.161 39.6014C210.722 39.7449 208.57 37.5928 208.57 35.0103Z" fill="white"/>
</svg>
