<svg width="139" height="125" viewBox="0 0 139 125" fill="none" xmlns="http://www.w3.org/2000/svg">
<path d="M18.8667 123.899C17.2595 124.633 15.4079 125 13.3117 125C11.4014 125 9.63698 124.685 8.0186 124.057C6.39881 123.427 4.99695 122.537 3.80813 121.383C2.62071 120.23 1.68893 118.85 1.0135 117.244C0.338066 115.636 0 113.866 0 111.933C0 109.953 0.343654 108.159 1.03096 106.553C1.71757 104.945 2.66751 103.577 3.87868 102.447C5.08915 101.318 6.51057 100.45 8.14153 99.8443C9.77109 99.2387 11.5299 98.9356 13.4165 98.9356C15.1634 98.9356 16.881 99.2443 18.5699 99.8618C20.2581 100.479 21.6272 101.382 22.6749 102.57L18.6223 106.622C18.0635 105.853 17.3301 105.283 16.4214 104.91C15.5126 104.538 14.5809 104.351 13.626 104.351C12.5783 104.351 11.6172 104.543 10.7441 104.928C9.87028 105.312 9.11941 105.842 8.49077 106.518C7.86144 107.193 7.3725 107.991 7.02326 108.911C6.67332 109.831 6.49869 110.838 6.49869 111.933C6.49869 113.051 6.67332 114.076 7.02326 115.008C7.3725 115.939 7.85515 116.736 8.47261 117.4C9.08937 118.064 9.82976 118.583 10.6917 118.956C11.5529 119.328 12.4966 119.514 13.522 119.514C14.7094 119.514 15.7452 119.282 16.6309 118.815C17.5152 118.351 18.2262 117.744 18.7627 116.999L22.9201 120.912C21.8241 122.169 20.474 123.165 18.8667 123.899Z" fill="white"/>
<path d="M34.659 121.261C34.659 122.24 34.3147 123.055 33.6281 123.707C32.9408 124.359 32.1194 124.685 31.1652 124.685C30.6763 124.685 30.216 124.598 29.7843 124.423C29.3534 124.248 28.9755 124.01 28.6493 123.707C28.3231 123.404 28.0668 123.049 27.881 122.641C27.6938 122.234 27.6016 121.786 27.6016 121.297C27.6016 120.831 27.6938 120.388 27.881 119.968C28.0668 119.55 28.3231 119.182 28.6493 118.868C28.9755 118.554 29.3534 118.304 29.7843 118.117C30.216 117.93 30.6763 117.838 31.1652 117.838C32.1194 117.838 32.9408 118.163 33.6281 118.815C34.3147 119.469 34.659 120.283 34.659 121.261Z" fill="white"/>
<path d="M39.7947 124.336V99.5991H45.8045V119.129H55.3772V124.336H39.7947Z" fill="white"/>
<path d="M67.3602 121.261C67.3602 122.24 67.0166 123.055 66.3293 123.707C65.6419 124.359 64.8212 124.685 63.8664 124.685C63.3775 124.685 62.9172 124.598 62.4862 124.423C62.0545 124.248 61.6767 124.01 61.3505 123.707C61.0243 123.404 60.7679 123.049 60.5821 122.641C60.3956 122.234 60.3027 121.786 60.3027 121.297C60.3027 120.831 60.3956 120.388 60.5821 119.968C60.7679 119.55 61.0243 119.182 61.3505 118.868C61.6767 118.554 62.0545 118.304 62.4862 118.117C62.9172 117.93 63.3775 117.838 63.8664 117.838C64.8212 117.838 65.6419 118.163 66.3293 118.815C67.0166 119.469 67.3602 120.283 67.3602 121.261Z" fill="white"/>
<path d="M91.6592 119.078C91.1577 120.301 90.4417 121.348 89.5107 122.222C88.5789 123.095 87.4543 123.777 86.1391 124.266C84.8231 124.755 83.3612 125 81.754 125C80.1237 125 78.6562 124.755 77.3522 124.266C76.0467 123.777 74.941 123.095 74.033 122.222C73.1242 121.348 72.4257 120.301 71.9368 119.078C71.4472 117.855 71.2027 116.498 71.2027 115.007V99.5989H77.1426V114.518C77.1426 115.194 77.2299 115.834 77.4045 116.44C77.5792 117.046 77.8467 117.587 78.2078 118.065C78.5689 118.542 79.0467 118.92 79.6404 119.2C80.2348 119.479 80.9507 119.619 81.7889 119.619C82.6278 119.619 83.3444 119.479 83.9375 119.2C84.5319 118.92 85.0145 118.542 85.3875 118.065C85.7605 117.587 86.028 117.046 86.1915 116.44C86.3542 115.834 86.4359 115.194 86.4359 114.518V99.5989H92.4101V115.007C92.4101 116.498 92.16 117.855 91.6592 119.078Z" fill="white"/>
<path d="M103.486 121.261C103.486 122.24 103.141 123.055 102.455 123.707C101.767 124.359 100.946 124.685 99.9918 124.685C99.5028 124.685 99.0425 124.598 98.6109 124.423C98.1799 124.248 97.802 124.01 97.4758 123.707C97.1496 123.404 96.8933 123.049 96.7075 122.641C96.5203 122.234 96.4281 121.786 96.4281 121.297C96.4281 120.831 96.5203 120.388 96.7075 119.968C96.8933 119.55 97.1496 119.182 97.4758 118.868C97.802 118.554 98.1799 118.304 98.6109 118.117C99.0425 117.93 99.5028 117.838 99.9918 117.838C100.946 117.838 101.767 118.163 102.455 118.815C103.141 119.469 103.486 120.283 103.486 121.261Z" fill="white"/>
<path d="M121.583 116.58C121.583 115.554 121.198 114.845 120.43 114.448C119.661 114.053 118.635 113.855 117.355 113.855H114.036V119.514H117.39C117.856 119.514 118.338 119.474 118.84 119.392C119.341 119.311 119.795 119.165 120.203 118.955C120.61 118.746 120.942 118.449 121.198 118.065C121.454 117.68 121.583 117.185 121.583 116.58ZM120.78 106.762C120.78 105.923 120.459 105.312 119.818 104.928C119.178 104.543 118.229 104.351 116.971 104.351H114.036V109.452H117.25C118.368 109.452 119.236 109.225 119.853 108.771C120.47 108.317 120.78 107.647 120.78 106.762V106.762ZM127.557 117.138C127.557 118.489 127.289 119.625 126.753 120.545C126.217 121.465 125.507 122.205 124.623 122.764C123.737 123.322 122.73 123.725 121.6 123.969C120.47 124.213 119.311 124.336 118.124 124.336H108.271V99.5989H118.124C119.078 99.5989 120.057 99.6988 121.058 99.8964C122.06 100.094 122.968 100.433 123.784 100.909C124.599 101.387 125.263 102.034 125.775 102.849C126.287 103.665 126.544 104.701 126.544 105.959C126.544 107.333 126.17 108.469 125.426 109.365C124.681 110.261 123.702 110.908 122.491 111.304V111.374C123.19 111.491 123.847 111.705 124.465 112.02C125.082 112.334 125.618 112.737 126.073 113.226C126.526 113.715 126.887 114.286 127.155 114.938C127.423 115.59 127.557 116.323 127.557 117.138Z" fill="white"/>
<path d="M138.597 121.261C138.597 122.24 138.253 123.055 137.566 123.707C136.879 124.359 136.058 124.685 135.104 124.685C134.615 124.685 134.154 124.598 133.723 124.423C133.292 124.248 132.914 124.01 132.588 123.707C132.262 123.404 132.005 123.049 131.819 122.641C131.632 122.234 131.54 121.786 131.54 121.297C131.54 120.831 131.632 120.388 131.819 119.968C132.005 119.55 132.262 119.182 132.588 118.868C132.914 118.554 133.292 118.304 133.723 118.117C134.154 117.93 134.615 117.838 135.104 117.838C136.058 117.838 136.879 118.163 137.566 118.815C138.253 119.469 138.597 120.283 138.597 121.261Z" fill="white"/>
<path d="M58.0583 17.1685C58.39 17.5987 57.8739 17.9186 57.8487 18.3182C57.7272 18.6395 58.2867 18.8064 58.0583 19.1116C57.7558 19.6271 58.3027 19.9841 58.4494 20.4108C58.4969 21.0325 58.1058 21.7254 58.5933 22.2248C59.8094 23.0867 61.6729 22.4127 62.956 23.0553C63.6119 23.5156 63.4652 24.4271 63.4568 25.1291C63.1027 28.1724 61.6275 30.7854 59.743 33.1728C59.5537 33.4627 59.3714 33.8594 59.5216 34.1926C59.7996 34.3351 60.1942 34.2778 60.4778 34.1759C63.9416 33.0059 66.6419 29.9954 70.0079 28.581C71.3169 27.9545 72.7921 27.7344 74.224 27.4152C74.5627 27.1414 74.3776 26.6539 74.2896 26.2949C73.5883 24.4571 72.7879 22.5957 72.9094 20.4737C72.9325 19.7089 73.7944 19.514 74.3225 19.2423C75.2228 18.9964 75.8025 18.0709 76.1839 17.2956C76.9257 16.2884 77.8477 15.3224 77.9546 14.04C78.0063 12.8958 77.9371 11.6588 78.3276 10.6335C78.6265 9.52635 78.4477 8.25791 78.0838 7.24371C77.9762 5.85582 77.5383 4.59925 76.6247 3.54943C75.7641 2.39344 74.3818 2.21951 73.3313 1.37714C72.3618 0.508228 71.0305 0.418823 69.7348 0.450255C68.926 0.458636 68.1262 0.272839 67.3516 0.112187C66.1537 -0.161618 64.9006 0.105901 63.834 0.481685C62.9896 0.640939 62.0815 0.652814 61.332 1.04885C60.3751 1.58669 59.2387 1.89402 58.5437 2.88307C58.0073 3.52847 57.3165 4.03976 57.1838 4.85978C57.0545 5.87817 57.2285 6.90983 58.0764 7.5685C58.3279 7.84231 58.7931 7.84231 58.9034 8.21739C58.8007 8.93753 58.4194 9.54102 58.1882 10.2116C57.7516 10.9589 58.8776 11.3787 58.4669 12.1561L56.8932 14.9459C56.7004 15.3524 56.4685 15.7394 56.4685 16.2262C56.6522 17.0015 57.584 16.7089 58.0583 17.1685Z" fill="white"/>
<path d="M118.406 50.1234C117.934 50.1234 117.561 50.0941 117.037 50.0347V40.7533C117.612 40.4767 118.333 40.3384 119.126 40.3384C121.511 40.3384 123.101 42.4094 123.101 45.5232C123.101 48.9137 121.36 50.1234 118.406 50.1234ZM120.815 38.6858C120.073 38.6858 118.479 39.292 117.037 40.1428V38.435L112.723 39.5128V40.1428L114.829 40.8622V56.5013L112.723 57.3569V58.0463H119.649V57.3569L117.037 56.5013V51.1425C117.54 51.3088 118.111 51.3605 118.602 51.3618C121.667 51.3765 125.457 49.0275 125.457 44.7507C125.457 41.3044 123.446 38.6858 120.815 38.6858" fill="white"/>
<path d="M133.869 32.0607C130.557 32.0607 128.414 34.1087 128.414 37.2672V38.8632H126.364V40.0884H128.414V49.6946L126.364 50.6502V51.3277H133.092V50.6502L130.557 49.6946V40.0884H134.16V38.8632H130.557V36.8607C130.557 35.3876 130.874 34.4621 131.547 33.8935C132.083 33.4262 132.972 33.1014 133.747 33.1014C133.817 33.1014 133.94 33.1273 134.082 33.1273L134.758 34.789H136.326V32.4707C135.698 32.199 134.857 32.0607 133.869 32.0607Z" fill="white"/>
<path d="M7.72033 41.598L4.93268 39.7366C3.07681 38.5163 2.67378 37.9603 2.67378 36.687C2.67378 34.8528 3.95131 33.9971 6.60555 33.9971C7.08191 33.9971 7.24047 34.0209 7.93127 34.0774L8.14431 34.1012L9.41834 37.4351H10.3948V33.497L10.0002 33.4125L8.91124 33.1617C8.5648 33.0765 8.11427 32.9948 7.50589 32.9103C6.7655 32.8286 5.96504 32.7461 5.51522 32.7461C2.49497 32.7461 0.448413 34.7138 0.448413 37.6271C0.448413 38.545 0.610461 39.2665 1.06098 39.988C1.53246 40.8192 2.0186 41.2628 3.39252 42.1778L5.99088 43.9296C7.84955 45.1798 8.27842 45.8134 8.27842 47.1733C8.27842 49.1151 6.97854 50.1454 4.51219 50.1454C3.79275 50.1454 3.23606 50.1153 2.56761 50.0043L1.27053 46.567H0.315002V50.6448L0.584618 50.7272L2.06959 51.0855C3.20603 51.3656 4.43117 51.5291 5.27913 51.5291C8.69541 51.5291 10.9271 49.5593 10.9271 46.4769C10.9271 45.4264 10.6672 44.4548 10.1336 43.6795C9.65234 42.8993 9.41834 42.7366 7.72033 41.598Z" fill="white"/>
<path d="M21.5025 49.778C20.2368 50.0155 19.9267 50.0427 19.1668 50.0427C17.6175 50.0427 16.6389 49.6208 15.8287 48.5836C15.0869 47.6581 14.6783 46.3058 14.6783 44.8229C14.6783 41.7468 16.4664 39.4704 18.8119 39.4704C18.9495 39.4704 19.0711 39.4704 19.3086 39.4949L20.3549 41.8537H21.814V39.124C20.6734 38.7287 19.7626 38.5436 18.8566 38.5436C15.0129 38.5436 12.4327 41.2998 12.4327 45.4069C12.4327 49.0355 14.5114 51.6052 17.4743 51.6052C18.3586 51.6052 19.3316 51.4222 20.4352 51.0506L21.652 50.6504L21.8881 50.5742L21.7449 49.7242L21.5025 49.778Z" fill="white"/>
<path d="M34.3562 42.9196C34.3562 40.2249 33.0766 38.4975 31.0803 38.4975C30.2812 38.4975 29.2447 38.8943 27.5034 39.8281L27.1911 39.9685V31.3562L22.9814 32.4906V33.1171L25.0978 33.854V49.6244L23.0987 50.6218V51.3259H28.9604V50.6218L27.1911 49.6244V40.623C27.6878 40.4554 28.6573 40.3373 29.3655 40.3373C31.3876 40.3373 32.2384 41.3047 32.2384 43.5734V49.6244L30.3769 50.6218V51.3259H36.3322V50.6218L34.3562 49.6244V42.9196Z" fill="white"/>
<path d="M53.2364 40.3334L54.6676 39.489V38.8519H49.839V39.489L51.6362 40.3334L49.0595 48.206L48.991 47.9762C48.7927 47.2358 48.741 47.0563 48.5768 46.5709L46.0274 38.8519H45.3037L41.9804 48.206L41.9028 47.8219L41.6891 47.1087L41.4649 46.39L39.4281 40.2042L41.2728 39.489V38.8519H35.5955V39.489L37.1203 40.2042L41.0556 51.3234H42.1229L45.1787 42.7355L47.9482 51.3234H49.0364L53.2364 40.3334Z" fill="white"/>
<path d="M57.0297 47.8875C57.0297 46.8125 57.5354 46.209 58.6809 45.8975C59.5379 45.6572 60.3014 45.5049 61.185 45.3946V49.6427C61.0858 49.6756 61.0432 49.7007 60.9978 49.7007C60.5403 49.8264 60.3014 49.8788 60.2273 49.8788C59.9403 49.9619 59.6329 49.9885 59.3214 49.9885C57.9182 49.9885 57.0297 49.1748 57.0297 47.8875ZM60.9677 50.3287L61.2527 50.1701C61.3994 51.0341 61.8059 51.4288 62.5212 51.4288H62.6148C62.9521 51.4015 63.4047 51.3219 63.6206 51.2451L65.3388 50.6136V50.0653L64.0006 49.6427C63.4047 49.4332 63.3363 49.334 63.3363 48.6746V41.7261C63.3363 39.6502 62.2103 38.6311 59.8704 38.6311C58.7724 38.6311 57.5061 38.9168 55.7102 39.521V41.9063H57.1463L58.1542 39.7278C58.4413 39.6803 58.5342 39.6803 58.7927 39.6803C60.6101 39.6803 61.185 40.1999 61.185 41.8302V44.6619C59.5379 44.8169 58.1277 45.0307 57.1757 45.2716C55.5245 45.6572 54.6409 46.6833 54.6409 48.2569C54.6409 50.1191 55.9785 51.4288 57.9182 51.4288C58.3722 51.4288 58.7724 51.3799 59.0832 51.2451C59.2306 51.1962 59.5854 51.0341 60.1603 50.7491L60.9677 50.3287Z" fill="white"/>
<path d="M72.929 50.6377L70.4535 49.7129V40.6515C71.0249 40.4168 71.6934 40.2569 72.2431 40.2569C72.3604 40.2569 72.5734 40.2841 72.8403 40.2841L73.5478 41.841H75.1949V38.9339C74.7904 38.6727 74.4293 38.5414 73.9795 38.5414C73.3159 38.5414 72.2431 38.9905 70.6666 39.8895L70.4535 40.0208V38.357L66.308 39.4159V40.0208L68.3113 40.6515V49.7129L66.308 50.6377V51.2922H72.929V50.6377Z" fill="white"/>
<path d="M76.609 42.3852H77.4339L78.6283 40.0383H82.843L76.1194 50.4792V51.3391H85.6893V47.452H84.9308L83.6197 50.1677H78.9189L85.6893 39.6933V38.8621H76.609V42.3852Z" fill="white"/>
<path d="M93.726 43.7106L97.2408 40.1853L99.5828 39.3709V38.7395H94.011V39.3709L95.5896 40.0547L91.4993 44.502L96.3335 51.3164H99.937V50.6626L98.1921 49.8956L93.726 43.7106Z" fill="white"/>
<path d="M86.9846 50.6627V51.3165H93.176V50.6627L91.1399 49.7407V31.2281L86.8603 32.2786V32.8604L89.0179 33.5456V49.7407L86.9846 50.6627Z" fill="white"/>
<path d="M105.766 50.4771C103.536 50.4771 102.202 48.3929 102.202 44.8634C102.202 41.5198 103.432 39.5955 105.536 39.5955C107.794 39.5955 109.101 41.7272 109.101 45.3901C109.101 48.6031 107.871 50.4771 105.766 50.4771ZM105.791 38.4101C102.126 38.4101 99.6605 41.1747 99.6605 45.2595C99.6605 49.0292 102.049 51.6604 105.435 51.6604C109.05 51.6604 111.646 48.7624 111.646 44.7852C111.646 40.9861 109.281 38.4101 105.791 38.4101" fill="white"/>
<path d="M3.48104 67.1544H2.03798V64.5938H3.44752C4.38698 64.5938 4.92411 65.0646 4.92411 65.8846C4.92411 66.6313 4.3311 67.1544 3.48104 67.1544ZM3.58931 63.3072H0.588623V70.7069H2.03798V68.4187H3.42656C4.86195 68.4187 6.39582 67.7384 6.39582 65.8308C6.39582 64.2976 5.29501 63.3072 3.58931 63.3072" fill="white"/>
<path d="M15.2666 67.0126H13.4519V64.5937H15.233C16.1445 64.5937 16.667 65.0407 16.667 65.8196C16.667 66.5439 16.118 67.0126 15.2666 67.0126ZM16.5776 67.989C17.2894 67.7257 18.1366 67.1159 18.1366 65.7106C18.1366 65.0275 17.9229 64.454 17.5171 64.0475C17.033 63.5642 16.2926 63.3071 15.3748 63.3071H12.0032V70.7068H13.4519V68.2656H14.9466L16.5811 70.7068H18.2637L16.4407 68.0407L16.5776 67.989Z" fill="white"/>
<path d="M27.194 69.518C25.8348 69.518 24.7689 68.406 24.7689 66.9853C24.7689 65.5673 25.802 64.4959 27.1724 64.4959C28.5309 64.4959 29.5954 65.6079 29.5954 67.0286C29.5954 68.4479 28.5638 69.518 27.194 69.518ZM27.194 63.1764C24.9784 63.1764 23.2448 64.8689 23.2448 67.0286C23.2448 69.1995 24.933 70.8374 27.1724 70.8374C29.3866 70.8374 31.1209 69.145 31.1209 66.9853C31.1209 64.8144 29.4327 63.1764 27.194 63.1764Z" fill="white"/>
<path d="M36.7606 70.7069H38.2093V67.7537H41.8484V66.4566H38.2093V64.605H42.3394V63.3072H36.7606V70.7069Z" fill="white"/>
<path d="M50.1369 67.6121H53.732V66.3472H50.1369V64.5716H54.223V63.3074H48.6987V70.7071H54.2768V69.4415H50.1369V67.6121Z" fill="white"/>
<path d="M63.5226 66.3652C62.2402 66.0362 61.7911 65.8658 61.7911 65.2302C61.7911 64.8432 62.1306 64.4528 62.887 64.4528C63.4654 64.4528 64.0737 64.6637 64.7485 65.0996L64.8407 65.1582L65.586 64.0777L65.4965 64.0113C64.752 63.4721 63.8817 63.199 62.9087 63.199C61.3811 63.199 60.3536 64.0847 60.3536 65.4055C60.3536 66.7648 61.1408 67.2034 62.7955 67.6267C64.0688 67.9515 64.4174 68.1883 64.4174 68.7289C64.4174 69.1312 64.0989 69.5622 63.2027 69.5622C62.4442 69.5622 61.7534 69.3044 61.0276 68.7491L60.941 68.6821L60.0931 69.6977L60.1825 69.7703C61.0165 70.4437 62.0768 70.8146 63.1706 70.8146C64.8267 70.8146 65.8556 69.9442 65.8556 68.5431C65.8556 67.4143 65.2018 66.8032 63.5226 66.3652Z" fill="white"/>
<path d="M74.8505 66.3652C73.5688 66.0376 73.1196 65.8658 73.1196 65.2302C73.1196 64.8432 73.4591 64.4528 74.2149 64.4528C74.7932 64.4528 75.4009 64.6637 76.0749 65.0989L76.1692 65.1582L76.9145 64.0777L76.823 64.0127C76.0812 63.4721 75.2102 63.199 74.2365 63.199C72.7082 63.199 71.6815 64.0847 71.6815 65.4055C71.6815 66.7634 72.4687 67.2034 74.1234 67.6267C75.3967 67.9515 75.7459 68.1883 75.7459 68.7289C75.7459 69.1312 75.4267 69.5622 74.5306 69.5622C73.772 69.5622 73.0812 69.3044 72.3548 68.7491L72.2682 68.6821L71.4202 69.6977L71.5103 69.7703C72.3436 70.4437 73.4046 70.8146 74.4984 70.8146C76.1546 70.8146 77.1834 69.9442 77.1834 68.5431C77.1834 67.4143 76.5289 66.8032 74.8505 66.3652Z" fill="white"/>
<path d="M83.3032 70.707H84.7518V63.3072H83.3032V70.707Z" fill="white"/>
<path d="M94.6379 69.518C93.2787 69.518 92.2135 68.406 92.2135 66.9853C92.2135 65.5673 93.2465 64.4959 94.6156 64.4959C95.9748 64.4959 97.04 65.6079 97.04 67.0286C97.04 68.4479 96.0069 69.518 94.6379 69.518ZM94.6379 63.1764C92.423 63.1764 90.688 64.8689 90.688 67.0286C90.688 69.1995 92.3762 70.8374 94.6156 70.8374C96.8305 70.8374 98.5655 69.145 98.5655 66.9853C98.5655 64.8144 96.8773 63.1764 94.6379 63.1764Z" fill="white"/>
<path d="M109.108 68.2295L105.363 63.3072H103.987V70.707H105.415V65.6332L109.279 70.707H110.535V63.3072H109.108V68.2295Z" fill="white"/>
<path d="M118.582 67.7417L119.765 64.8528L120.951 67.7417H118.582ZM119.09 63.2539L115.919 70.7068H117.379L118.077 68.9962H121.454L122.151 70.7068H123.657L120.486 63.2539H119.09Z" fill="white"/>
<path d="M130.489 63.3073H129.039V70.7071H134.291V69.4086H130.489V63.3073Z" fill="white"/>
<path d="M136.158 86.1952H0.482544V84.4483H136.158V86.1952Z" fill="white"/>
</svg>
